<?xml version="1.0" encoding="UTF-8"?>
<svg version="1.1" xmlns="http://www.w3.org/2000/svg" width="512" height="512">
<path d="M0 0 C1.45108658 0.00273422 1.45108658 0.00273422 2.93148804 0.00552368 C17.26440977 0.05095174 31.21023917 0.55983928 45.3125 3.3125 C46.65803955 3.55395752 46.65803955 3.55395752 48.03076172 3.80029297 C95.57547049 12.40346381 138.5800725 34.88424602 174.1015625 67.32421875 C175.86330083 68.9085382 177.64338787 70.40640998 179.5 71.875 C182.42583127 74.41072043 184.84633456 77.09439933 187.34765625 80.0390625 C189.49985873 82.52928485 191.74775174 84.91250425 194 87.3125 C224.16343523 120.53334848 243.60815878 162.99083273 252.625 206.6875 C252.77243652 207.39817627 252.91987305 208.10885254 253.07177734 208.84106445 C256.05713787 224.48358366 256.6873098 240.11919606 256.625 256 C256.62226578 257.45108658 256.62226578 257.45108658 256.61947632 258.93148804 C256.57404826 273.26440977 256.06516072 287.21023917 253.3125 301.3125 C253.15152832 302.20952637 252.99055664 303.10655273 252.82470703 304.03076172 C244.22153619 351.57547049 221.74075398 394.5800725 189.30078125 430.1015625 C187.7164618 431.86330083 186.21859002 433.64338787 184.75 435.5 C182.21427957 438.42583127 179.53060067 440.84633456 176.5859375 443.34765625 C174.09571515 445.49985873 171.71249575 447.74775174 169.3125 450 C136.09165152 480.16343523 93.63416727 499.60815878 49.9375 508.625 C49.22682373 508.77243652 48.51614746 508.91987305 47.78393555 509.07177734 C32.14141634 512.05713787 16.50580394 512.6873098 0.625 512.625 C-0.34239105 512.62317719 -1.3097821 512.62135437 -2.30648804 512.61947632 C-16.63940977 512.57404826 -30.58523917 512.06516072 -44.6875 509.3125 C-45.58452637 509.15152832 -46.48155273 508.99055664 -47.40576172 508.82470703 C-94.95047049 500.22153619 -137.9550725 477.74075398 -173.4765625 445.30078125 C-175.23830083 443.7164618 -177.01838787 442.21859002 -178.875 440.75 C-181.80083127 438.21427957 -184.22133456 435.53060067 -186.72265625 432.5859375 C-188.87485873 430.09571515 -191.12275174 427.71249575 -193.375 425.3125 C-223.53843523 392.09165152 -242.98315878 349.63416727 -252 305.9375 C-252.14743652 305.22682373 -252.29487305 304.51614746 -252.44677734 303.78393555 C-255.43213787 288.14141634 -256.0623098 272.50580394 -256 256.625 C-255.99817719 255.65760895 -255.99635437 254.6902179 -255.99447632 253.69351196 C-255.94904826 239.36059023 -255.44016072 225.41476083 -252.6875 211.3125 C-252.44604248 209.96696045 -252.44604248 209.96696045 -252.19970703 208.59423828 C-243.59653619 161.04952951 -221.11575398 118.0449275 -188.67578125 82.5234375 C-187.0914618 80.76169917 -185.59359002 78.98161213 -184.125 77.125 C-181.58927957 74.19916873 -178.90560067 71.77866544 -175.9609375 69.27734375 C-173.47071515 67.12514127 -171.08749575 64.87724826 -168.6875 62.625 C-135.46665152 32.46156477 -93.00916727 13.01684122 -49.3125 4 C-48.60182373 3.85256348 -47.89114746 3.70512695 -47.15893555 3.55322266 C-31.51641634 0.56786213 -15.88080394 -0.0623098 0 0 Z M-125.6875 81.3125 C-127.234375 82.43011719 -127.234375 82.43011719 -128.8125 83.5703125 C-175.94464284 118.57285976 -205.11829454 170.58937741 -213.80078125 228.30078125 C-214.96024064 237.4015305 -215.08500791 246.4599297 -215.0625 255.625 C-215.06162384 256.50100861 -215.06074768 257.37701721 -215.05984497 258.27957153 C-214.91312305 302.95563381 -201.28442317 346.2363966 -174.6875 382.3125 C-173.56988281 383.859375 -173.56988281 383.859375 -172.4296875 385.4375 C-137.42714024 432.56964284 -85.41062259 461.74329454 -27.69921875 470.42578125 C-18.5984695 471.58524064 -9.5400703 471.71000791 -0.375 471.6875 C0.50100861 471.68662384 1.37701721 471.68574768 2.27957153 471.68484497 C46.95563381 471.53812305 90.2363966 457.90942317 126.3125 431.3125 C127.34375 430.56742187 128.375 429.82234375 129.4375 429.0546875 C176.56964284 394.05214024 205.74329454 342.03562259 214.42578125 284.32421875 C215.58524064 275.2234695 215.71000791 266.1650703 215.6875 257 C215.68662384 256.12399139 215.68574768 255.24798279 215.68484497 254.34542847 C215.53812305 209.66936619 201.90942317 166.3886034 175.3125 130.3125 C174.56742187 129.28125 173.82234375 128.25 173.0546875 127.1875 C138.05214024 80.05535716 86.03562259 50.88170546 28.32421875 42.19921875 C19.2234695 41.03975936 10.1650703 40.91499209 1 40.9375 C0.12399139 40.93837616 -0.75201721 40.93925232 -1.65457153 40.94015503 C-46.33063381 41.08687695 -89.6113966 54.71557683 -125.6875 81.3125 Z " fill="#7099ff" transform="translate(255.6875,-0.3125)"/>
<path d="M0 0 C3.97711017 4.19923601 6.23424432 9.80539206 6.46875 15.55078125 C5.51083713 28.81031207 -6.41507278 37.72489531 -15.25610352 46.53442383 C-16.53843814 47.81947302 -17.82034789 49.10494631 -19.10186768 50.39080811 C-22.56197099 53.85997947 -26.02831056 57.32285461 -29.49612927 60.78431153 C-33.13315125 64.41624778 -36.76526591 68.05308644 -40.3981781 71.68913269 C-46.49485269 77.78943805 -52.59571468 83.88553172 -58.69897461 89.97924805 C-65.7492984 97.01867437 -72.79236881 104.06529626 -79.83174378 111.11567003 C-85.88684319 117.17985018 -91.94583728 123.24011826 -98.00809425 129.29714316 C-101.62419009 132.91012553 -105.23893178 136.52443486 -108.8501606 140.14228249 C-112.24295318 143.54085984 -115.64061539 146.93449304 -119.04206848 150.32440186 C-120.28780117 151.56749466 -121.53184362 152.812284 -122.77404594 154.05890465 C-124.47262459 155.76296624 -126.1772735 157.46072019 -127.88356018 159.15705872 C-128.37102252 159.6489825 -128.85848486 160.14090628 -129.36071879 160.64773685 C-135.42420092 166.64305696 -141.03594965 169.9195515 -149.53125 170.55078125 C-158.30640697 169.80659833 -164.20289251 164.17905557 -170.11572266 158.2409668 C-170.74415573 157.61764465 -171.37258881 156.99432251 -172.02006531 156.35211182 C-174.08364946 154.3023602 -176.13978878 152.24533246 -178.1953125 150.1875 C-179.63425177 148.75245081 -181.07341337 147.31762452 -182.51278687 145.88301086 C-185.52365911 142.87958698 -188.53064398 139.87233444 -191.53515625 136.86254883 C-195.37778029 133.01412866 -199.2316536 129.17719847 -203.08875465 125.3432951 C-206.06232245 122.38448742 -209.02890427 119.41875145 -211.99354172 116.45099831 C-213.41131301 115.03373896 -214.83143694 113.61882891 -216.25398636 112.20636559 C-218.24512233 110.22762199 -220.22641095 108.23949645 -222.20556641 106.2487793 C-222.78955704 105.6724324 -223.37354767 105.09608551 -223.97523499 104.50227356 C-229.38654903 99.02115389 -233.25630404 93.52421412 -233.53125 85.55078125 C-233.02011174 78.11237445 -230.00636967 73.49230875 -224.53125 68.55078125 C-220.04363898 65.28706414 -215.88679392 65.17369151 -210.5078125 65.0546875 C-200.61850738 66.70290502 -194.49997158 74.0575486 -187.8125 80.87890625 C-186.70380174 81.99507665 -185.59420826 83.11035846 -184.48376465 84.22479248 C-181.58148009 87.14225664 -178.69141695 90.07153481 -175.80383301 93.00354004 C-172.84793946 96.00055269 -169.88050872 98.9860948 -166.9140625 101.97265625 C-161.10851434 107.82093965 -155.31584189 113.68176931 -149.53125 119.55078125 C-143.08834209 114.24760086 -137.25267755 108.38587505 -131.3828125 102.46826172 C-130.27024031 101.3504883 -129.15742016 100.23296164 -128.04437256 99.11566162 C-125.6591564 96.72055119 -123.27541893 94.3239823 -120.89276123 91.92632675 C-117.12176572 88.13215594 -113.34579584 84.34296206 -109.56884766 80.55471802 C-98.83321855 69.78574513 -88.10181646 59.01258485 -77.38085938 48.22900391 C-71.45112886 42.26472004 -65.51602986 36.30583348 -59.57493401 30.35287011 C-55.82175761 26.5916129 -52.07523626 22.82389017 -48.33351135 19.05124259 C-46.00205813 16.70374512 -43.6642973 14.36260916 -41.32471466 12.02321625 C-40.24458196 10.94066897 -39.16701357 9.8555558 -38.09227753 8.7676506 C-27.33716066 -2.11368571 -14.40684564 -11.51868083 0 0 Z " fill="#7099ff" transform="translate(369.53125,173.44921875)"/>
</svg>
